HIERARCHY
ROOT joint_Root
{
	OFFSET 0.0 0.0 0.0
	CHANNELS 6 Xposition Yposition Zposition Zrotation Xrotation Yrotation 
	JOINT Hips
	{
		OFFSET 4.5925 91.4895 -427.239
		CHANNELS 6 Xposition Yposition Zposition Zrotation Xrotation Yrotation 
		JOINT Spine
		{
			OFFSET 15.7357 0.0 0.0
			CHANNELS 6 Xposition Yposition Zposition Zrotation Xrotation Yrotation 
			JOINT Chest
			{
				OFFSET 8.98455 -0.406207 0.0
				CHANNELS 6 Xposition Yposition Zposition Zrotation Xrotation Yrotation 
				JOINT Neck
				{
					OFFSET 16.3773 0.0 0.0
					CHANNELS 6 Xposition Yposition Zposition Zrotation Xrotation Yrotation 
					JOINT Head
					{
						OFFSET 6.45672 0.0 0.0
						CHANNELS 6 Xposition Yposition Zposition Zrotation Xrotation Yrotation 
						End Site
						{
							OFFSET 0.0 0.0 0.0
						}
					}
				}
				JOINT Shoulder_L
				{
					OFFSET 12.9942 -0.242716 4.98039
					CHANNELS 6 Xposition Yposition Zposition Zrotation Xrotation Yrotation 
					JOINT UpperArm_L
					{
						OFFSET 5.34809 0.0 0.0
						CHANNELS 6 Xposition Yposition Zposition Zrotation Xrotation Yrotation 
						JOINT LowerArm_L
						{
							OFFSET 24.3286 1.87007e-05 0.0
							CHANNELS 6 Xposition Yposition Zposition Zrotation Xrotation Yrotation 
							JOINT Hand_L
							{
								OFFSET 22.2916 0.0 0.0
								CHANNELS 6 Xposition Yposition Zposition Zrotation Xrotation Yrotation 
								End Site
								{
									OFFSET 0.0 0.0 0.0
								}
							}
						}
					}
				}
				JOINT Shoulder_R
				{
					OFFSET 12.9945 -0.242716 -4.98039
					CHANNELS 6 Xposition Yposition Zposition Zrotation Xrotation Yrotation 
					JOINT UpperArm_R
					{
						OFFSET -5.34813 0.0 0.0
						CHANNELS 6 Xposition Yposition Zposition Zrotation Xrotation Yrotation 
						JOINT LowerArm_R
						{
							OFFSET -24.3289 0.000322201 0.0
							CHANNELS 6 Xposition Yposition Zposition Zrotation Xrotation Yrotation 
							JOINT Hand_R
							{
								OFFSET -22.2915 -0.000108084 0.0
								CHANNELS 6 Xposition Yposition Zposition Zrotation Xrotation Yrotation 
								End Site
								{
									OFFSET 0.0 0.0 0.0
								}
							}
						}
					}
				}
			}
		}
		JOINT UpperLeg_L
		{
			OFFSET -2.19248 -6.46944 0.0
			CHANNELS 6 Xposition Yposition Zposition Zrotation Xrotation Yrotation 
			JOINT LowerLeg_L
			{
				OFFSET 39.0811 0.0 -1.23785e-05
				CHANNELS 6 Xposition Yposition Zposition Zrotation Xrotation Yrotation 
				JOINT Foot_L
				{
					OFFSET 40.9854 0.0 -1.26872e-05
					CHANNELS 6 Xposition Yposition Zposition Zrotation Xrotation Yrotation 
					JOINT Toes_L
					{
						OFFSET 11.7543 0.0 0.0
						CHANNELS 6 Xposition Yposition Zposition Zrotation Xrotation Yrotation 
						End Site
						{
							OFFSET 0.0 0.0 0.0
						}
					}
				}
			}
		}
		JOINT UpperLeg_R
		{
			OFFSET -2.19251 6.46944 0.0
			CHANNELS 6 Xposition Yposition Zposition Zrotation Xrotation Yrotation 
			JOINT LowerLeg_R
			{
				OFFSET -39.0811 -0.00228153 -0.0401928
				CHANNELS 6 Xposition Yposition Zposition Zrotation Xrotation Yrotation 
				JOINT Foot_R
				{
					OFFSET -40.9854 0.0 0.0
					CHANNELS 6 Xposition Yposition Zposition Zrotation Xrotation Yrotation 
					JOINT Toes_R
					{
						OFFSET -11.7543 0.0 0.0
						CHANNELS 6 Xposition Yposition Zposition Zrotation Xrotation Yrotation 
						End Site
						{
							OFFSET 0.0 0.0 0.0
						}
					}
				}
			}
		}
	}
}
MOTION
Frames:	8
Frame Time:	0.0333333
0.000000 0.000000 0.000000 0.000000 0.000000 -0.000000 0.160244 90.307400 -5.451370 88.913100 -3.264750 12.043800 15.735700 0.000005 -0.000001 88.718500 76.926200 -88.898300 8.984550 -0.406207 -0.000000 18.374700 -0.590196 -0.265039 16.377300 -0.000001 -0.000001 5.285280 -3.894530 2.450230 6.456720 -0.000001 -0.000000 -6.359160 -3.048060 -0.524784 12.994200 -0.242716 4.980390 -91.042200 5.227280 -78.707900 5.348090 -0.000007 -0.000001 -52.459100 39.415700 -32.357200 24.328600 0.000019 0.000005 8.003140 19.255100 -23.090100 22.291600 -0.000001 0.000005 10.939000 5.242030 1.642360 12.994500 -0.242716 -4.980390 89.424700 9.838500 -86.637000 -5.348130 -0.000001 -0.000004 -56.315900 35.730200 -25.144800 -24.328900 0.000322 -0.000009 1.717610 4.451840 -21.134600 -22.291500 -0.000108 -0.000004 16.074900 5.394970 -2.774650 -2.192480 -6.469440 -0.000000 -174.908000 -10.100800 -3.787280 39.081100 -0.000007 -0.000012 -0.172644 0.246597 34.996400 40.985400 -0.000006 -0.000013 0.840887 4.961460 -69.148300 11.754300 -0.000000 0.000003 -0.000067 -0.000730 -16.605800 -2.192510 6.469440 -0.000001 175.150000 17.853100 177.538000 -39.081100 -0.002282 -0.040193 -0.179568 0.273741 33.743600 -40.985400 0.000008 0.000006 2.967560 11.765700 -68.936700 -11.754300 -0.000006 -0.000006 -0.004047 -0.051927 -18.685400
0.000000 0.000000 0.000000 0.000000 0.000000 -0.000000 0.169897 90.308000 -5.465510 88.902700 -3.301140 12.067500 15.735700 0.000005 -0.000001 88.776500 76.924100 -88.956600 8.984550 -0.406207 -0.000000 18.379500 -0.564363 -0.269740 16.377300 -0.000001 -0.000001 5.326970 -3.882680 2.469160 6.456720 -0.000001 -0.000000 -6.505530 -3.045990 -0.530907 12.994200 -0.242716 4.980390 -91.027400 5.157120 -78.717200 5.348090 -0.000007 -0.000001 -52.543100 38.592200 -32.112800 24.328600 0.000019 0.000005 8.438130 19.157800 -24.324900 22.291600 -0.000001 0.000005 10.883800 5.242130 1.639820 12.994500 -0.242716 -4.980390 89.426900 9.776890 -86.629000 -5.348130 -0.000001 -0.000004 -56.370700 35.675700 -25.124700 -24.328900 0.000322 -0.000009 1.711040 4.434180 -21.137200 -22.291500 -0.000108 -0.000004 16.072100 5.395430 -2.789490 -2.192480 -6.469440 -0.000000 -174.883000 -10.164000 -3.769200 39.081100 -0.000007 -0.000012 -0.174600 0.249355 35.000300 40.985400 -0.000006 -0.000013 0.862043 5.009520 -69.143500 11.754300 -0.000000 0.000003 -0.000064 -0.000703 -16.604700 -2.192510 6.469440 -0.000001 175.156000 17.844200 177.547000 -39.081100 -0.002282 -0.040193 -0.177590 0.270773 33.744200 -40.985400 0.000008 0.000006 3.017940 11.792500 -68.932900 -11.754300 -0.000006 -0.000006 -0.003943 -0.050844 -18.641300
0.000000 0.000000 0.000000 0.000000 0.000000 -0.000000 0.180653 90.303300 -5.479290 88.922800 -3.319340 12.099200 15.735700 0.000005 -0.000001 88.804700 76.913400 -88.999200 8.984550 -0.406207 -0.000000 18.401100 -0.553471 -0.300159 16.377300 -0.000001 -0.000001 5.359020 -3.863760 2.477670 6.456720 -0.000001 -0.000000 -6.689630 -3.020350 -0.467641 12.994200 -0.242716 4.980390 -91.017800 5.070070 -78.633900 5.348090 -0.000007 -0.000001 -52.475100 37.702200 -32.021600 24.328600 0.000019 0.000005 8.845900 18.773400 -25.807400 22.291600 -0.000001 0.000005 10.855400 5.243500 1.603940 12.994500 -0.242716 -4.980390 89.425700 9.746170 -86.611200 -5.348130 -0.000001 -0.000004 -56.375500 35.607400 -25.124200 -24.328900 0.000322 -0.000009 1.733060 4.486810 -21.156700 -22.291500 -0.000108 -0.000004 16.045900 5.396930 -2.837920 -2.192480 -6.469440 -0.000000 -174.900000 -10.180100 -3.749770 39.081100 -0.000007 -0.000012 -0.176357 0.251744 35.013200 40.985400 -0.000006 -0.000013 0.867026 5.000580 -69.144100 11.754300 -0.000000 0.000003 -0.000069 -0.000748 -16.606400 -2.192510 6.469440 -0.000001 175.108000 17.838100 177.559000 -39.081100 -0.002282 -0.040193 -0.182647 0.278165 33.761200 -40.985400 0.000008 0.000006 2.925230 11.841000 -68.907200 -11.754300 -0.000006 -0.000006 -0.003989 -0.051326 -18.660900
0.000000 0.000000 0.000000 0.000000 0.000000 -0.000000 0.176079 90.305100 -5.506030 88.909100 -3.291960 12.089400 15.735700 0.000005 -0.000001 88.808400 76.915900 -89.002100 8.984550 -0.406207 -0.000000 18.396300 -0.551647 -0.298808 16.377300 -0.000001 -0.000001 5.413100 -3.829190 2.521650 6.456720 -0.000001 -0.000000 -6.913500 -2.961740 -0.434871 12.994200 -0.242716 4.980390 -91.002600 4.964080 -78.566900 5.348090 -0.000007 -0.000001 -52.404200 36.660400 -31.921800 24.328600 0.000019 0.000005 9.444260 18.506300 -27.657200 22.291600 -0.000001 0.000005 10.965300 5.242030 1.642490 12.994500 -0.242716 -4.980390 89.421900 9.707320 -86.575500 -5.348130 -0.000001 -0.000004 -56.401700 35.528800 -25.111200 -24.328900 0.000322 -0.000009 1.746780 4.522350 -21.156900 -22.291500 -0.000108 -0.000004 16.026000 5.399040 -2.906320 -2.192480 -6.469440 -0.000000 -174.896000 -10.162200 -3.786000 39.081100 -0.000007 -0.000012 -0.174688 0.249328 35.016900 40.985400 -0.000006 -0.000013 0.868731 5.002960 -69.123200 11.754300 -0.000000 0.000003 -0.000064 -0.000703 -16.604800 -2.192510 6.469440 -0.000001 175.140000 17.865000 177.528000 -39.081100 -0.002282 -0.040193 -0.177759 0.270790 33.767100 -40.985400 0.000008 0.000006 3.024830 11.818600 -68.915200 -11.754300 -0.000006 -0.000006 -0.004026 -0.051712 -18.676600
0.000000 0.000000 0.000000 0.000000 0.000000 -0.000000 0.172179 90.304100 -5.533880 88.878900 -3.235340 12.108500 15.735700 0.000005 -0.000001 88.836100 76.908800 -89.029900 8.984550 -0.406207 -0.000000 18.410600 -0.539559 -0.301074 16.377300 -0.000001 -0.000001 5.469940 -3.804050 2.540810 6.456720 -0.000001 -0.000000 -7.124170 -2.924010 -0.283295 12.994200 -0.242716 4.980390 -90.988200 4.853950 -78.477900 5.348090 -0.000007 -0.000001 -52.192300 35.474800 -31.947300 24.328600 0.000019 0.000005 10.371500 18.541100 -29.922400 22.291600 -0.000001 0.000005 10.951500 5.239660 1.704350 12.994500 -0.242716 -4.980390 89.410800 9.700550 -86.507500 -5.348130 -0.000001 -0.000004 -56.372700 35.529000 -25.122700 -24.328900 0.000322 -0.000009 1.690800 4.370140 -21.187700 -22.291500 -0.000108 -0.000004 16.063200 5.395680 -2.797540 -2.192480 -6.469440 -0.000000 -174.868000 -10.135800 -3.808390 39.081100 -0.000007 -0.000012 -0.174653 0.249050 35.041400 40.985400 -0.000006 -0.000013 0.877358 5.032500 -69.108700 11.754300 -0.000000 0.000003 -0.000064 -0.000700 -16.604600 -2.192510 6.469440 -0.000001 175.160000 17.947800 177.545000 -39.081100 -0.002282 -0.040193 -0.174687 0.266283 33.758500 -40.985400 0.000008 0.000006 3.035020 11.833400 -68.898200 -11.754300 -0.000006 -0.000006 -0.003985 -0.051287 -18.659300
0.000000 0.000000 0.000000 0.000000 0.000000 -0.000000 0.168233 90.303600 -5.542920 88.900800 -3.186410 12.138900 15.735700 0.000005 -0.000001 88.865000 76.897100 -89.075300 8.984550 -0.406207 -0.000000 18.434300 -0.528601 -0.335689 16.377300 -0.000001 -0.000001 5.526020 -3.780950 2.584870 6.456720 -0.000001 -0.000000 -7.276300 -2.903360 -0.185660 12.994200 -0.242716 4.980390 -90.972400 4.753580 -78.425100 5.348090 -0.000007 -0.000001 -51.947100 34.076300 -31.956700 24.328600 0.000019 0.000005 11.423400 18.415200 -32.603700 22.291600 -0.000001 0.000005 11.112900 5.238370 1.738180 12.994500 -0.242716 -4.980390 89.407300 9.677080 -86.478600 -5.348130 -0.000001 -0.000004 -56.422400 35.418700 -25.097100 -24.328900 0.000322 -0.000009 1.670450 4.321090 -21.171500 -22.291500 -0.000108 -0.000004 15.976000 5.396460 -2.822740 -2.192480 -6.469440 -0.000000 -174.881000 -10.126100 -3.783390 39.081100 -0.000007 -0.000012 -0.177570 0.253302 35.031600 40.985400 -0.000006 -0.000013 0.882459 5.063280 -69.096100 11.754300 -0.000000 0.000003 -0.000071 -0.000765 -16.607100 -2.192510 6.469440 -0.000001 175.103000 18.015700 177.577000 -39.081100 -0.002282 -0.040193 -0.180500 0.274931 33.763200 -40.985400 0.000008 0.000006 2.990460 11.863000 -68.886000 -11.754300 -0.000006 -0.000006 -0.003880 -0.050181 -18.614300
0.000000 0.000000 0.000000 0.000000 0.000000 -0.000000 0.164341 90.307900 -5.564080 88.892300 -3.151530 12.142200 15.735700 0.000005 -0.000001 88.947300 76.894800 -89.162600 8.984550 -0.406207 -0.000000 18.439500 -0.492263 -0.351666 16.377300 -0.000001 -0.000001 5.620880 -3.765030 2.625250 6.456720 -0.000001 -0.000000 -7.441910 -2.900330 -0.079423 12.994200 -0.242716 4.980390 -90.960100 4.651350 -78.323600 5.348090 -0.000007 -0.000001 -51.598800 32.582000 -32.173300 24.328600 0.000019 0.000005 12.580900 18.286600 -35.422700 22.291600 -0.000001 0.000005 11.336200 5.234630 1.835160 12.994500 -0.242716 -4.980390 89.400700 9.664950 -86.434700 -5.348130 -0.000001 -0.000004 -56.392400 35.421900 -25.118400 -24.328900 0.000322 -0.000009 1.668100 4.325570 -21.124300 -22.291500 -0.000108 -0.000004 15.979000 5.396810 -2.834060 -2.192480 -6.469440 -0.000000 -174.883000 -10.114600 -3.799160 39.081100 -0.000007 -0.000012 -0.170473 0.243278 35.020600 40.985400 -0.000006 -0.000013 0.891746 5.085260 -69.069200 11.754300 -0.000000 0.000003 -0.000063 -0.000695 -16.604400 -2.192510 6.469440 -0.000001 175.109000 18.093500 177.584000 -39.081100 -0.002282 -0.040193 -0.175016 0.266880 33.748100 -40.985400 0.000008 0.000006 3.047580 11.884100 -68.882500 -11.754300 -0.000006 -0.000006 -0.004078 -0.052244 -18.698300
0.000000 0.000000 0.000000 0.000000 0.000000 -0.000000 0.153704 90.311600 -5.587510 88.900000 -3.046670 12.122000 15.735700 0.000005 -0.000001 88.948700 76.896400 -89.171500 8.984550 -0.406207 -0.000000 18.436300 -0.492252 -0.366742 16.377300 -0.000001 -0.000001 5.757970 -3.760320 2.670440 6.456720 -0.000001 -0.000000 -7.655600 -2.904760 0.015967 12.994200 -0.242716 4.980390 -90.940600 4.517240 -78.224400 5.348090 -0.000007 -0.000001 -51.260800 30.902700 -32.529500 24.328600 0.000019 0.000005 13.649300 17.888500 -38.327700 22.291600 -0.000001 0.000005 11.662800 5.232380 1.893780 12.994500 -0.242716 -4.980390 89.394100 9.650130 -86.390100 -5.348130 -0.000001 -0.000004 -56.396400 35.365900 -25.111000 -24.328900 0.000322 -0.000009 1.695930 4.395260 -21.135800 -22.291500 -0.000108 -0.000004 15.982200 5.396710 -2.830710 -2.192480 -6.469440 -0.000000 -174.909000 -10.022400 -3.847120 39.081100 -0.000007 -0.000012 -0.171493 0.244894 35.002900 40.985400 -0.000006 -0.000013 0.893223 5.119490 -69.033200 11.754300 -0.000000 0.000003 -0.000061 -0.000676 -16.603700 -2.192510 6.469440 -0.000001 175.089000 18.201600 177.571000 -39.081100 -0.002282 -0.040193 -0.174332 0.265958 33.738000 -40.985400 0.000008 0.000006 3.060280 11.891000 -68.874700 -11.754300 -0.000006 -0.000006 -0.004055 -0.052010 -18.688700
